<svg width="18" height="21" viewBox="0 0 18 21" fill="none" xmlns="http://www.w3.org/2000/svg">
<path d="M5.5 21H0.7V20.97C1.18 20.75 1.62 20.36 2.02 19.8C2.42 19.24 2.8 18.53 3.16 17.67C3.54 16.81 3.91 15.82 4.27 14.7C4.63 13.58 4.99 12.35 5.35 11.01L6.7 6.03C6.8 5.67 6.91 5.19 7.03 4.59C7.17 3.99 7.27 3.39 7.33 2.79C7.41 2.17 7.42 1.6 7.36 1.08C7.32 0.559999 7.16 0.209998 6.88 0.0299982V-1.43051e-06H12.19V0.0299982C12.07 0.109998 11.99 0.309999 11.95 0.629999C11.91 0.929999 11.91 1.31 11.95 1.77C11.99 2.21 12.06 2.71 12.16 3.27C12.28 3.81 12.41 4.36 12.55 4.92L15.55 16.08C15.71 16.64 15.88 17.2 16.06 17.76C16.24 18.3 16.43 18.8 16.63 19.26C16.83 19.7 17.03 20.08 17.23 20.4C17.43 20.7 17.62 20.89 17.8 20.97V21H12.04V20.97C12.22 20.85 12.31 20.56 12.31 20.1C12.31 19.64 12.27 19.15 12.19 18.63C12.11 18.09 12.01 17.58 11.89 17.1C11.79 16.62 11.72 16.28 11.68 16.08L11.41 15.15H5.08C4.98 15.91 4.91 16.62 4.87 17.28C4.83 17.94 4.83 18.53 4.87 19.05C4.91 19.55 4.98 19.97 5.08 20.31C5.18 20.63 5.32 20.85 5.5 20.97V21ZM5.92 11.01C5.76 11.63 5.62 12.24 5.5 12.84C5.38 13.42 5.27 14 5.17 14.58H11.26L8.65 4.8C8.53 4.32 8.35 4.08 8.11 4.08C7.89 4.08 7.72 4.32 7.6 4.8L5.92 11.01Z" fill="#767575"/>
</svg>
